<?xml version="1.0" standalone="no"?>
<!DOCTYPE svg PUBLIC "-//W3C//DTD SVG 20010904//EN"
 "http://www.w3.org/TR/2001/REC-SVG-20010904/DTD/svg10.dtd">
<svg version="1.0" xmlns="http://www.w3.org/2000/svg"
 width="256.000000pt" height="256.000000pt" viewBox="0 0 256.000000 256.000000"
 preserveAspectRatio="xMidYMid meet">
<metadata>
Created by potrace 1.15, written by Peter Selinger 2001-2017
</metadata>
<g transform="translate(0.000000,256.000000) scale(0.100000,-0.100000)"
fill="#000000" stroke="none">
<path d="M567 2152 c-15 -17 -17 -61 -17 -431 l0 -411 -40 -80 c-22 -44 -46
-80 -53 -80 -24 0 -57 -45 -57 -78 0 -31 29 -72 50 -72 5 0 24 -28 41 -61 l31
-62 -67 -186 c-57 -159 -66 -194 -63 -241 l3 -55 874 -3 c637 -1 877 1 887 9
31 26 16 108 -80 418 -51 167 -100 307 -107 312 -8 5 -130 9 -272 9 l-258 0 3
23 3 22 264 3 c229 2 267 5 283 19 17 15 18 45 18 467 0 393 -2 454 -16 474
l-15 22 -698 0 c-663 0 -699 -1 -714 -18z m1402 -26 c8 -9 10 -138 9 -457 l-3
-444 -282 -3 -283 -2 0 -60 0 -60 273 0 273 0 93 -303 c61 -200 91 -314 89
-337 l-3 -35 -855 0 -855 0 -3 36 c-2 26 17 91 62 217 37 99 66 184 66 190 0
5 -15 41 -34 78 -30 62 -32 70 -17 80 14 11 19 4 40 -47 14 -32 27 -56 30 -53
3 3 20 42 36 87 l31 82 252 3 252 2 0 60 0 60 -269 0 c-148 0 -275 2 -283 5
-8 3 -23 -17 -41 -56 -23 -53 -29 -60 -42 -49 -13 11 -10 23 30 96 l45 84 0
408 c0 304 3 411 12 420 19 19 1361 17 1377 -2z m-859 -961 l0 -25 -239 0
c-273 0 -254 6 -287 -92 -8 -27 -20 -46 -25 -43 -14 9 -4 117 15 153 l17 32
259 0 260 0 0 -25z"/>
<path d="M632 2088 c-9 -9 -12 -101 -11 -357 0 -326 1 -344 16 -313 10 20 24
32 36 32 11 0 30 11 43 25 13 14 30 25 38 25 8 0 44 29 81 65 l67 64 -1 226
-2 225 501 0 500 0 0 -380 0 -380 -503 0 -504 0 -23 -25 -23 -24 544 2 544 2
3 413 2 412 -648 0 c-491 0 -651 -3 -660 -12z"/>
<path d="M772 1443 c-2 -42 -3 -43 -37 -43 -27 0 -38 5 -43 20 -7 17 -13 9
-41 -49 -47 -97 -44 -101 79 -101 55 0 100 4 100 9 0 23 -14 41 -31 41 -15 0
-19 7 -19 35 0 21 5 35 13 35 9 0 9 2 0 8 -6 4 -13 25 -16 47 l-4 40 -1 -42z"/>
<path d="M1027 1054 c-72 -17 -117 -40 -117 -59 0 -13 51 -15 370 -15 204 0
370 3 370 8 -1 25 -40 48 -115 68 -69 19 -428 18 -508 -2z"/>
<path d="M753 793 c-7 -2 -13 -16 -13 -30 0 -24 -2 -25 -57 -22 -83 3 -146 0
-159 -9 -24 -15 -26 -50 -5 -71 20 -20 32 -21 280 -21 239 0 261 1 282 19 20
16 22 23 14 47 l-10 29 -145 5 c-80 3 -130 7 -112 8 24 1 32 7 32 21 0 10 -7
22 -16 25 -18 7 -73 7 -91 -1z"/>
</g>
</svg>
